<svg xmlns="http://www.w3.org/2000/svg" viewBox="0 0 80.271 30.626" class="dh-io-vmos_3DKIy"><path d="M14.504 17.49c-3.649 0-6.568 2.919-6.568 6.568s2.919 6.568 6.568 6.568 6.568-2.919 6.568-6.568-2.92-6.568-6.568-6.568zm0 10.764c-2.372 0-4.287-1.916-4.287-4.287s1.916-4.287 4.287-4.287 4.287 1.916 4.287 4.287c0 2.463-1.916 4.287-4.287 4.287z"></path><path d="M14.504 20.683c-1.824 0-3.284 1.459-3.284 3.284s1.459 3.284 3.284 3.284 3.284-1.459 3.284-3.284c.091-1.733-1.46-3.284-3.284-3.284z"></path><path d="M79.085 15.392l-.091-3.74-3.831-8.666.73-.821-.183-1.094C68.778.159 35.757-.753 33.568.98c-4.378 3.466-8.574 7.571-8.574 7.571L4.196 11.288l-2.737 2.189L0 16.578l.821 1.459-.73.547 1.003 5.108 5.747.821c-.091-.547-.182-1.186-.182-1.733 0-4.287 3.557-7.845 7.845-7.845s7.845 3.557 7.845 7.845c0 .821-.182 1.733-.365 2.463h36.122c0-.091 0-.274-.091-.365a7.132 7.132 0 01-.274-2.007c0-4.378 3.557-7.936 7.936-7.936s7.936 3.557 7.936 7.936v.912l6.203-1.824.456-4.835-1.187-1.732zM4.561 16.578l-2.554.73 1.459-3.101 2.645-1.003 1.916 1.186-3.466 2.188zm6.75-3.557s2.919-.912 14.047-1.551c4.835-4.561 8.027-7.662 9.578-8.757 2.919-.912 11.767-.547 11.767-.547l-.639 8.392c1.186-.091 2.463-.091 3.649-.182l.547-8.301h12.406l2.007 7.845h1.733l-2.007-7.753 6.659.365 2.919 5.473-.456 2.098s-1.277.182-3.101.365c-1.916.182-4.561.365-7.753.456 0 0-28.642.912-35.848 1.459-8.119.638-15.508.638-15.508.638z"></path><path d="M65.677 17.49c-3.649 0-6.568 2.919-6.568 6.568s2.919 6.568 6.568 6.568c3.649 0 6.568-2.919 6.568-6.568s-2.92-6.568-6.568-6.568zm0 10.764c-2.372 0-4.287-1.916-4.287-4.287s1.916-4.287 4.287-4.287 4.287 1.916 4.287 4.287c0 2.463-1.916 4.287-4.287 4.287z"></path><path d="M65.677 20.683c-1.824 0-3.284 1.459-3.284 3.284s1.459 3.284 3.284 3.284 3.284-1.459 3.284-3.284c.091-1.733-1.46-3.284-3.284-3.284z"></path></svg>