<svg xmlns="http://www.w3.org/2000/svg" viewBox="0 0 80.912 25.673" class="dh-io-vmos_3DKIy"><path d="M13.016 17.673c-1.379 0-2.574 1.195-2.574 2.574 0 .368.092.736.276 1.103.46.828 1.287 1.471 2.299 1.471s1.931-.552 2.299-1.471c.184-.368.276-.736.276-1.103-.001-1.47-1.105-2.574-2.576-2.574zm52.777-3.034c-3.034 0-5.517 2.483-5.517 5.517s2.483 5.517 5.517 5.517c3.034 0 5.517-2.483 5.517-5.517s-2.483-5.517-5.517-5.517zm0 9.011c-1.931 0-3.494-1.563-3.494-3.494s1.563-3.494 3.494-3.494c1.931 0 3.494 1.563 3.494 3.494s-1.563 3.494-3.494 3.494z"></path><path d="M13.016 14.639c-3.034 0-5.517 2.483-5.517 5.517s2.483 5.517 5.517 5.517 5.517-2.483 5.517-5.517-2.482-5.517-5.517-5.517zm0 9.011c-1.931 0-3.494-1.563-3.494-3.494s1.563-3.494 3.494-3.494 3.494 1.563 3.494 3.494-1.563 3.494-3.494 3.494z"></path><path d="M79.625 13.076l-.919-4.138.46-1.563-7.265-1.195C59.581.204 47.536-1.267 36.962 1.031c0 0-3.034.644-11.493 6.436 0 0-15.723.919-20.78 2.758l-2.115.828L.46 14.179l.184 2.207-.644.828s.46 4.046.368 4.046l5.885 1.103h.184c-.184-.644-.368-1.379-.368-2.115 0-3.77 3.034-6.804 6.804-6.804s6.804 3.034 6.804 6.804c0 .736-.092 1.471-.368 2.115h.46l39.077-.092.184-.092a7.656 7.656 0 01-.276-2.023 6.788 6.788 0 016.804-6.804 6.788 6.788 0 016.804 6.804c0 .46 0 .828-.092 1.195h.276c1.287-.276 7.723-1.287 7.723-1.287l.644-5.885c-.001 0-.553-.459-1.288-1.103zM5.057 14.271l-3.126 1.195s.644-2.207 2.115-3.034c.828-.46 3.586-1.103 3.586-1.103l-2.575 2.942zm62.155-5.7c-1.655.184-4.046.368-6.896.46-15.907.46-35.767 1.563-35.951 1.563-4.046.184-9.654.552-9.654.552s2.666-1.103 11.677-1.563c4.505-3.77 10.206-6.528 10.206-6.528 2.85-.828 6.988-1.195 7.172-1.195 2.023-.184 4.138-.092 6.344.092l-.644 6.62c1.287-.092 2.483-.092 3.586-.092l.644-6.068c4.689.736 9.195 2.207 12.137 3.954.276.184-3.31 1.379-4.781 1.839 5.057-.276 8.735.092 8.735.092s-.92.09-2.575.274z"></path><circle cx="65.793" cy="20.156" r="2.574"></circle></svg>