<svg xmlns="http://www.w3.org/2000/svg" viewBox="0 0 86.4 32.8" class="dh-io-vmos_3DKIy"><path d="M72.875 23.625a3.013 3.013 0 110 6.026 3.013 3.013 0 010-6.026zm6.163 3.013c0 3.351-2.703 6.162-6.162 6.162-3.351 0-6.162-2.703-6.162-6.162 0-3.351 2.703-6.162 6.162-6.162 3.35 0 6.162 2.703 6.162 6.162zm-2.055 0a4.106 4.106 0 00-4.108-4.108 4.106 4.106 0 00-4.108 4.108 4.106 4.106 0 004.108 4.108 4.106 4.106 0 004.108-4.108zm-66.306 0a3.013 3.013 0 106.026 0 3.013 3.013 0 00-6.026 0zm9.175 0c0 3.351-2.703 6.162-6.162 6.162-3.351 0-6.162-2.703-6.162-6.162 0-3.351 2.703-6.162 6.162-6.162 3.351 0 6.162 2.703 6.162 6.162zm-2.054 0a4.106 4.106 0 00-4.108-4.108 4.106 4.106 0 00-4.108 4.108 4.106 4.106 0 004.108 4.108 4.106 4.106 0 004.108-4.108zM86.4 24.814l-.463 2.207-5.534 1.063a7.634 7.634 0 00-1.697-6.419c-.05-.061-.103-.12-.155-.179l-.002-.002a7.55 7.55 0 00-11.326-.025 7.635 7.635 0 00-2.014 5.178c0 .715.1 1.407.283 2.064-2.678.022-37.721.672-44.645.678a7.666 7.666 0 10-14.315.008L.483 28.102 0 22.797l1.092-1.274-.303-2.124s1.062-3.521 1.358-3.891c2.647-1.633 14.44-4.846 14.44-4.846 9.417-6.854 9.43-6.518 15.024-9.161C36.526-.38 80.697-.38 81.971 1.198c3.732 5.188 3.519 21.418 3.519 21.418l.91 2.198zM8.282 15.121l-4.945 1.957-1.148 3.374 5.456-3.397.637-1.934zm72.658-4.555s-.456-4.296-4.013-7.208c-1.213-.719-7.205-1.223-13.072-1.348l.887 7.881-1.731.08-.933-7.837c-8.383-.077-17.887.155-18.878.155l.245 8.531c-1.198.092-2.809.146-4.007.238l.243-8.708s-4.576.141-7.524 1.062c-2.913 1.335-9.101 4.482-14.046 8.911-7.473 1.896-8.216 2.141-8.216 2.141 14.405-1.83 58.272-3.939 71.045-3.898z"></path></svg>